HIERARCHY
ROOT Hips
{
  OFFSET 0 0 0
  CHANNELS 6 Xposition Yposition Zposition Zrotation Yrotation Xrotation
  JOINT LeftThigh
  {
    OFFSET 8.409438 0 -5.917753
    CHANNELS 3 Zrotation Yrotation Xrotation
    JOINT LeftLeg
    {
      OFFSET 0 0 -42.358652
      CHANNELS 3 Zrotation Yrotation Xrotation
      JOINT LeftFoot
      {
        OFFSET 0 0 -39.357303
        CHANNELS 3 Zrotation Yrotation Xrotation
      }
    }
  }
  JOINT RightThigh
  {
    OFFSET -8.409438 0 -5.917753
    CHANNELS 3 Zrotation Yrotation Xrotation
    JOINT RightLeg
    {
      OFFSET 0 0 -42.358652
      CHANNELS 3 Zrotation Yrotation Xrotation
      JOINT RightFoot
      {
        OFFSET 0 0 -39.357303
        CHANNELS 3 Zrotation Yrotation Xrotation
      }
    }
  }
  JOINT SpineLow
  {
    OFFSET 0 0 4.719101
    CHANNELS 3 Zrotation Yrotation Xrotation
    JOINT SpineMid
    {
      OFFSET 0 0 12.899191
      CHANNELS 3 Zrotation Yrotation Xrotation
      JOINT Chest
      {
        OFFSET 0 0 12.899191
        CHANNELS 3 Zrotation Yrotation Xrotation
        JOINT LeftShoulder
        {
          OFFSET 7.550562 1.41573 9.438202
          CHANNELS 3 Zrotation Yrotation Xrotation
          JOINT LeftArm
          {
            OFFSET 9.155056 0 4.247191
            CHANNELS 3 Zrotation Yrotation Xrotation
            JOINT LeftForearm
            {
              OFFSET 0 0 25.771955
              CHANNELS 3 Zrotation Yrotation Xrotation
              JOINT LeftHand
              {
                OFFSET 0 0 25.197169
                CHANNELS 3 Zrotation Yrotation Xrotation
              }
            }
          }
        }
        JOINT RightShoulder
        {
          OFFSET -7.550562 1.41573 9.438202
          CHANNELS 3 Zrotation Yrotation Xrotation
          JOINT RightArm
          {
            OFFSET -9.155056 0 4.247191
            CHANNELS 3 Zrotation Yrotation Xrotation
            JOINT RightForearm
            {
              OFFSET 0 0 -25.771955
              CHANNELS 3 Zrotation Yrotation Xrotation
              JOINT RightHand
              {
                OFFSET 0 0 -25.197169
                CHANNELS 3 Zrotation Yrotation Xrotation
              }
            }
          }
        }
        JOINT Neck
        {
          OFFSET 0 0 15.101124
          CHANNELS 3 Zrotation Yrotation Xrotation
          JOINT Head
          {
            OFFSET 0 0 11.325843
            CHANNELS 3 Zrotation Yrotation Xrotation
            End Site
            {
              OFFSET 0 0 14.157303
            }
          }
        }
      }
    }
  }
}
MOTION
Frames: 16
Frame Time: 0.0
0.0  101.685394  0.0  1.875901  -24.222133  -101.73574  28.505011  -19.660104  3.983004  -1.488386  10.062361  32.214784  8.080811  5.413197  2.701022  0.648156  8.542626  -9.707029  6.539814  12.436083  22.867627  13.970207  0.576569  -3.452106  -4.18199  -0.879723  2.991914  -11.522638  -1.876259  8.303974  -11.522639  -1.876259  8.303974  13.931395  40.374344  10.190025  -122.238944  50.153824  -101.31057  -11.640812  -25.18022  131.707211  113.058665  28.452186  -22.927259  11.275737  6.526947  11.070628  83.099782  29.589434  34.767401  -62.996703  21.415572  -83.608623  78.392065  22.925666  33.218563  21.186326  4.829753  -4.767218  15.919136  3.462239  -3.746522  
0.0  101.685394  0.0  2.100948  -23.253471  -101.447198  27.688802  -19.082848  3.311828  -1.570664  10.365585  32.85097  7.920105  5.311416  2.4325  -1.065115  9.053737  -10.642356  7.074487  12.326708  23.49817  13.813322  0.532288  -3.43834  -4.309169  -0.856378  2.934663  -11.865406  -1.806982  8.146576  -11.865406  -1.806982  8.146576  14.428571  40.400546  10.331288  -122.617608  50.334572  -101.298114  -11.605242  -24.84492  131.951856  112.903756  28.445255  -22.819996  11.127491  6.597273  10.971397  84.171444  29.680513  35.75219  -63.163779  21.626635  -83.626667  79.070802  22.994419  31.922943  21.479102  4.919623  -4.846013  16.139619  3.524832  -3.81125  
0.0  101.685394  0.0  2.429541  -21.712845  -101.232198  26.661049  -18.372911  2.567826  -1.795767  10.756517  33.591279  7.928155  5.206588  2.27871  -2.204187  9.54401  -10.913983  6.347762  12.652814  23.675709  13.56318  0.643063  -3.382896  -4.451375  -0.798888  2.87894  -12.245015  -1.643395  7.986973  -12.245015  -1.643395  7.986973  14.192767  40.303291  10.108502  -123.070005  50.474955  -101.361158  -11.518633  -24.584646  132.027411  112.775247  28.36887  -22.633256  10.902318  6.629925  10.814824  84.721837  29.625597  36.479879  -63.312149  21.97484  -83.618331  79.869822  23.259683  30.24389  21.499036  4.930337  -5.018554  16.156083  3.526671  -3.941308  
0.0  101.685394  0.0  2.792539  -19.631336  -100.956449  25.570718  -17.58213  1.604532  -2.224856  11.146424  34.393832  8.293209  5.259037  2.379093  -4.178188  10.255516  -11.209746  5.527875  12.933992  23.68529  13.287444  0.821582  -3.368603  -4.643426  -0.728353  2.774761  -12.758604  -1.44846  7.693112  -12.758604  -1.44846  7.693112  14.073005  40.222605  10.019464  -123.898473  50.680905  -101.493714  -11.361669  -24.361781  131.889441  112.656242  28.161327  -22.311383  10.656538  6.646787  10.605376  84.968007  29.15958  37.083077  -63.501986  22.43997  -83.648981  80.837024  23.573446  28.367638  21.345003  4.843838  -5.123554  16.041141  3.459226  -4.015826  
0.0  101.685394  0.0  3.05407  -16.773448  -100.377876  24.347952  -16.839001  0.281605  -2.956534  11.613859  35.108396  8.246448  5.223004  2.272256  -6.816233  11.141348  -11.577007  4.73968  13.112411  23.521571  13.286128  0.985884  -3.348021  -4.932112  -0.684832  2.618501  -13.539127  -1.328369  7.263451  -13.539127  -1.32837  7.26345  13.983524  40.334919  9.800865  -125.084754  50.978147  -101.69063  -11.068785  -24.102151  131.490362  112.485435  27.82974  -21.909769  10.544456  6.883162  10.259802  84.754597  28.22307  37.361657  -63.717168  22.99527  -83.695668  81.883005  23.939673  26.395909  21.014876  4.70532  -5.213015  15.793778  3.354726  -4.075494  
0.0  101.685394  0.0  3.130126  -13.228355  -99.47491  23.133054  -16.26571  -1.331018  -3.911568  12.169911  35.617125  8.012123  5.141432  2.199634  -9.79801  12.05845  -11.939386  3.85317  13.130627  23.186803  13.086589  1.102565  -3.347322  -5.243393  -0.664462  2.445689  -14.384325  -1.276121  6.793396  -14.384325  -1.276121  6.793396  13.569973  40.516545  9.478934  -126.8701  51.248359  -101.855648  -10.654103  -23.886445  130.750067  112.187956  27.440029  -21.590561  9.983309  7.352086  9.748833  84.267377  26.883874  37.121757  -63.999395  23.579717  -83.785444  82.883453  24.240437  24.576316  20.301744  4.435468  -5.382711  15.259156  3.152198  -4.188181  
0.0  101.685394  0.0  3.055388  -8.835115  -98.453157  21.604041  -15.841313  -3.004844  -5.009347  12.788099  35.888522  7.429123  4.935994  2.101556  -13.096566  12.994007  -12.06035  2.989473  12.930539  22.786273  12.504809  1.185708  -3.403929  -5.550851  -0.662452  2.267596  -15.221284  -1.279684  6.313042  -15.221284  -1.279684  6.313042  12.69114  40.791677  9.484101  -129.381426  51.360716  -101.941727  -10.169802  -23.78257  129.638366  111.61006  27.126484  -21.595324  8.857369  7.843669  8.88434  83.427076  24.849633  36.668798  -64.279522  23.994032  -83.952201  83.833534  24.337183  22.952094  19.157331  4.11262  -5.527781  14.400414  2.914855  -4.278214  
0.0  101.685394  0.0  2.888168  -3.691929  -97.404145  19.798359  -15.559147  -4.687041  -6.494032  13.473675  35.892053  6.693223  4.739864  1.985796  -16.531785  13.831161  -11.873051  1.98756  12.674145  22.297263  11.502357  1.270445  -3.484083  -5.886863  -0.67085  2.066733  -16.137016  -1.318903  5.774182  -16.137016  -1.318903  5.774183  12.294956  40.846687  10.089998  -133.429142  51.26226  -102.674773  -9.302442  -23.571657  128.010073  110.903679  26.832794  -22.230117  7.579288  8.348099  7.887733  82.223865  22.161073  36.145021  -64.470964  23.99324  -84.225192  84.807505  24.167997  21.46393  17.897349  3.805584  -5.517062  13.453723  2.695611  -4.252234  
0.0  101.685394  0.0  2.61692  2.050023  -96.298204  17.849284  -15.414302  -6.430087  -8.530754  14.357408  35.537953  6.094457  4.511895  1.858973  -19.910869  14.488968  -11.453057  0.595409  12.45624  21.679914  10.345696  1.327076  -3.514021  -6.210532  -0.704948  1.835779  -17.020715  -1.441918  5.160966  -17.020716  -1.441919  5.160966  12.391865  40.354388  10.953286  -139.534269  50.991097  -105.17444  -8.067079  -22.810964  126.210017  110.169613  26.458585  -23.60215  5.915111  8.963306  7.16207  80.845083  19.271539  35.501672  -64.473174  23.58581  -84.572648  86.155257  23.70101  20.176068  16.438853  3.533705  -5.327864  12.357147  2.509339  -4.093331  
0.0  101.685394  0.0  2.363201  8.21043  -95.220455  15.81367  -15.311164  -8.063897  -11.07384  15.34249  34.771556  5.835689  4.326046  1.745686  -23.027567  15.242864  -10.907284  -1.400414  12.123225  21.091894  9.242423  1.349519  -3.521472  -6.533449  -0.755427  1.577851  -17.902505  -1.622549  4.480732  -17.902506  -1.622549  4.480732  12.915482  39.455648  11.952629  -147.392765  50.390923  -109.584632  -6.817283  -21.340446  124.691602  109.393405  25.791929  -25.368597  4.211299  9.806127  6.952297  79.29646  16.444106  34.747194  -64.413193  22.945294  -84.944219  87.571908  23.076464  18.969758  14.879267  3.344312  -4.98837  11.184461  2.38865  -3.824427  
0.0  101.685394  0.0  2.147287  14.427518  -94.194591  13.680741  -15.311395  -9.510472  -13.742231  16.298389  33.628559  5.799697  4.212295  1.639808  -25.488442  16.044989  -10.237309  -4.117278  11.777172  20.613021  8.357428  1.323181  -3.557176  -6.795967  -0.836415  1.325561  -18.620367  -1.894303  3.825268  -18.620367  -1.894303  3.825268  13.710152  38.254262  13.054955  -156.248691  48.968959  -115.043222  -5.512274  -19.008158  123.680959  108.615028  24.710476  -26.864355  2.607913  11.063997  7.228052  77.31959  13.804913  33.705842  -64.393572  22.251964  -85.417935  88.962977  22.728837  17.746374  13.182708  3.316817  -4.691386  9.910427  2.387908  -3.591166  
0.0  101.685394  0.0  2.029939  20.547284  -93.290008  11.399412  -15.380057  -10.641384  -16.132144  17.115623  32.195168  5.808454  4.093936  1.632761  -27.318287  16.817672  -9.325064  -7.231179  11.600625  20.176333  7.817454  1.159399  -3.659856  -6.984023  -0.896686  1.091988  -19.132308  -2.113413  3.21484  -19.132308  -2.113413  3.21484  14.964349  36.747475  14.330399  -165.46982  46.915892  -120.872925  -4.248366  -16.10633  123.18218  107.593883  23.226717  -27.909513  1.460495  12.238477  8.01198  74.719825  11.409992  32.749579  -64.443822  21.587859  -85.956742  90.195294  22.918642  16.458708  11.366191  3.315533  -4.513309  8.54731  2.403864  -3.44718  
0.0  101.685394  0.0  2.060703  26.353547  -92.386956  9.265649  -15.467895  -11.59803  -17.969979  17.779184  30.719307  5.521393  3.809971  1.619354  -28.644253  17.441431  -8.225504  -10.348769  11.686612  19.650416  7.723787  0.963163  -3.829517  -7.162031  -0.903847  0.857575  -19.612699  -2.192895  2.587523  -19.612699  -2.192895  2.587523  17.377601  34.754869  15.900474  -174.561319  43.90018  -126.665915  -2.626124  -13.268375  123.252925  106.220584  21.404109  -28.73088  1.766989  13.145788  10.197891  71.500434  10.055856  31.891275  -64.544652  20.689239  -86.416962  91.215386  23.450511  15.13288  9.731376  3.225394  -4.441196  7.320513  2.349194  -3.382443  
0.0  101.685394  0.0  2.302772  31.6624  -91.527272  7.596139  -15.534927  -12.384722  -19.376206  18.247321  29.362433  4.812562  3.432709  1.648783  -29.047238  17.905894  -6.880983  -13.351817  12.076044  19.152298  7.326486  0.737474  -4.038196  -7.316629  -0.901906  0.587728  -20.027176  -2.262502  1.861515  -20.027177  -2.262502  1.861515  20.584842  33.200348  17.930041  178.584395  39.223427  -131.7799  0.985948  -10.870932  124.365894  104.728717  19.354859  -29.605486  3.483307  14.961032  14.635533  68.737938  9.986658  30.005309  -65.28773  19.158291  -87.067834  92.222884  23.709411  13.734047  8.37754  3.252185  -4.226027  6.304327  2.381888  -3.214008  
0.0  101.685394  0.0  2.890503  36.48386  -90.701977  6.266255  -15.427308  -12.889977  -20.532214  18.43069  28.089051  3.724033  3.136103  1.66317  -28.131675  18.33613  -5.369924  -16.140209  12.611121  19.035732  6.787034  0.772421  -4.26312  -7.328876  -0.890329  0.404717  -20.054487  -2.286023  1.363269  -20.054488  -2.286023  1.36327  23.557076  31.363798  19.713667  174.350671  34.165551  -135.188171  6.440774  -7.45799  125.677217  103.486277  17.082686  -30.909115  5.310765  17.45331  19.221117  67.17854  10.232523  27.086721  -66.515222  17.229075  -88.210995  93.185983  23.501156  12.580903  6.71939  3.32323  -4.324985  5.061966  2.44538  -3.279872  
0.0  101.685394  0.0  3.862056  40.833801  -89.891541  4.888961  -15.060848  -12.953252  -21.402196  18.254553  26.907693  2.460484  2.992171  1.657354  -26.178065  18.697657  -3.774908  -21.113109  13.555344  18.879095  7.82522  1.490934  -4.4947  -6.940798  -0.754361  0.517846  -18.992007  -1.894594  1.617821  -18.992006  -1.894594  1.617821  23.409441  29.245491  19.443542  170.463725  31.996486  -137.94609  10.866341  -2.125983  126.787938  102.759334  14.401619  -31.869259  4.849002  18.032905  21.350481  67.257497  10.931963  25.5967  -67.917147  15.300956  -89.673019  93.721903  22.710995  12.296418  3.780773  2.852399  -5.320519  2.860101  2.106677  -4.007404  
